<?xml version="1.0" encoding="UTF-8"?>
<svg xmlns="http://www.w3.org/2000/svg" width="456" height="636" viewBox="0 0 456 636" fill="none">
  <g clip-path="url(#clip0_462_103)">
    <path d="M344.497 221.04C343.267 278.71 396.627 364.07 445.987 484.63C458.457 518.84 310.396 537.2 271.096 489.83C231.796 442.48 344.497 221.04 344.497 221.04Z" fill="#474545"></path>
    <path d="M352.575 202.29C358.625 254.88 394.875 351.69 438.555 466.82C442.335 506.65 308.805 513.57 269.505 466.2C242.585 433.76 285.435 250.93 317.085 190.44C331.635 162.64 352.575 202.29 352.575 202.29Z" fill="#474545"></path>
    <path d="M401.546 577.14C400.416 572.09 399.186 566.75 397.856 561.17V561.19L397.716 560.59C378.666 480.87 340.486 351.32 336.216 256.14L357.366 186.53L356.696 164.51L354.366 89.3901L328.066 121.51C322.896 123.27 317.536 128.55 312.486 138.67C299.026 165.61 187.196 242.59 116.446 295.73C111.506 377.65 83.9357 510.9 70.9157 570.35L70.7957 569.98C70.0757 573.7 69.3657 577.46 68.6057 580.85C60.8457 618.94 118.456 634.58 167.286 613.5L167.396 613.46C173.796 619.67 181.226 624.24 189.116 627.63C227.606 644.18 278.286 630.21 289.426 614.86L289.446 614.82C296.376 617.36 303.626 619.19 310.966 620.48C358.476 628.77 409.436 611.48 401.556 577.12L401.546 577.14Z" fill="#474545"></path>
    <path d="M134.916 0.46C84.816 3.44 47.916 49.25 22.816 88.1C14.736 101.44 4.76602 117.05 1.41602 132.47C11.646 194.74 473.256 202.47 449.146 116.38C424.046 70.9 389.186 23.45 347.266 6.55L321.866 0.62C314.806 0.04 307.896 0 300.806 0C257.336 66.01 161.586 40.84 134.926 0.46H134.916Z" fill="#474545"></path>
    <path d="M168.986 598.82L176.656 617.38L188.196 607.47L188.216 607.81C186.186 558.42 185.076 504.29 182.586 473.67C179.996 475.7 177.346 477.71 174.686 479.67C173.856 512.24 172.376 563.91 168.986 598.83V598.82ZM290.126 600.14L300.146 617.38L309.816 602.97C303.376 503.12 297.166 386.82 292.356 342.84L288.876 348.68C290.886 401.5 292.756 533.1 290.126 600.15V600.14Z" fill="white"></path>
    <path d="M357.376 89.3999L106.426 392.16C106.426 392.16 90.616 481.23 80.666 525.03C115.966 515.96 147.176 499.82 174.696 479.64C177.356 477.68 179.986 475.67 182.596 473.64C228.076 438.11 262.946 391.72 288.886 348.69C290.066 346.73 291.236 344.79 292.366 342.85C312.286 308.98 326.656 277.7 336.236 256.14L357.386 186.53L357.366 89.3999H357.376Z" fill="white"></path>
    <path d="M221.855 35.37C168.685 35.37 139.545 0.02 139.545 0.02C137.995 0.02 134.945 0.43 134.945 0.46C135.355 40.79 195.175 141.31 235.095 141.31C275.015 141.31 300.815 40.06 300.815 0H297.765C297.765 0 275.005 35.37 221.855 35.37Z" fill="#474545"></path>
    <path d="M361.096 160.67L364.416 184.33L434.786 162.23C450.856 157.18 459.216 139.56 452.886 123.95C451.756 121.18 449.166 116.1 449.146 116.38C446.906 140.5 432.586 143.86 361.096 160.68V160.67ZM401.546 577.14C400.416 572.09 399.186 566.75 397.856 561.17V561.19C391.366 590.1 357.086 607.25 309.806 602.96C305.186 602.54 300.346 601.74 295.496 600.9C293.976 600.64 292.266 600.39 290.136 600.12C259.586 616 225.626 622.17 188.226 607.76L188.206 607.42C187.186 607.26 186.146 606.93 185.106 606.63C179.976 605.11 174.596 602.03 168.996 598.8C143.896 604.89 88.2157 611.24 70.9157 570.33L70.7957 569.96C70.0757 573.68 69.3657 577.44 68.6057 580.83C60.8457 618.92 118.456 634.56 167.286 613.48L167.396 613.44C173.796 619.65 181.226 624.22 189.116 627.61C227.606 644.16 278.286 630.19 289.426 614.84L289.446 614.8C296.376 617.34 303.626 619.18 310.966 620.46C358.476 628.79 409.436 611.5 401.556 577.13L401.546 577.14Z" fill="#474545"></path>
    <path d="M309.815 603.05C302.885 602.45 300.045 601.69 295.495 600.92C293.975 600.66 292.265 600.41 290.135 600.14C289.925 605.52 289.675 610.35 289.415 614.83L289.435 614.79C296.365 617.33 303.615 619.16 310.955 620.45L309.825 603.04L309.815 603.05ZM188.215 607.78L188.195 607.44C187.175 607.28 186.135 606.95 185.095 606.65C179.965 605.13 174.585 602.05 168.985 598.82C168.455 604.2 167.895 609.02 167.275 613.5L167.385 613.46C173.785 619.67 181.215 624.24 189.105 627.63C188.765 620.73 188.555 616.08 188.225 607.78H188.215Z" fill="white"></path>
    <path d="M357.385 186.55L351.195 58.57L390.745 43.96C390.745 43.96 392.105 76.47 370.965 154.36C373.805 168.12 376.325 180.57 376.325 180.57L357.375 186.55H357.385Z" fill="white"></path>
    <path d="M300.795 0.0200195C295.345 10.89 260.975 95.47 99.4253 162.9C99.4053 163.01 89.7553 160.78 89.6653 160.77C40.7953 149.27 14.1653 143.01 1.40531 132.47C-1.64469 146.49 6.30531 160.96 20.5153 165.42L84.5153 183.4L99.0853 186.56L99.1053 186.54C100.785 220.36 109.195 270.88 116.425 295.74C110.655 385.53 86.3253 498.45 86.3253 498.45C86.3253 498.45 311.405 431.98 392.115 37.58C363.565 6.23002 325.285 0.0200195 315.425 0.0200195H300.805H300.795Z" fill="#474545"></path>
    <path d="M92.2461 468.58C93.5561 450.99 112.176 358.43 116.436 295.72C92.2461 232.74 99.0561 195.55 99.0761 186.54C99.0761 186.54 247.116 143.43 315.496 0.0200195C354.376 0.62002 374.756 22.12 380.366 26.45C345.716 282.37 150.756 449.09 92.2561 468.58H92.2461Z" fill="#474545"></path>
    <path d="M232.385 197.7C198.655 229.84 157.785 252.99 109.635 275.9C111.595 282.23 113.765 288.74 116.425 295.71C115.475 309.66 113.795 325.12 111.785 340.85L111.805 340.89C135.515 327.2 217.615 228.78 232.385 197.7Z" fill="white"></path>
    <path d="M99.0964 186.54C99.0964 186.54 96.7664 171.39 104.086 106.47C100.506 120.76 84.0664 183.26 84.0664 183.26L99.0964 186.54Z" fill="white"></path>
    <path d="M139.695 385.08L146.165 396.92L158.015 403.41L146.165 409.88L139.695 421.72L133.225 409.88L121.375 403.41L133.225 396.92L139.695 385.08ZM205.215 317.48L211.685 329.32L223.525 335.81L211.685 342.28L205.215 354.12L198.725 342.28L186.885 335.81L198.725 329.32L205.215 317.48ZM260.995 243.6L267.465 255.44L279.305 261.93L267.465 268.4L260.995 280.24L254.525 268.4L242.675 261.93L254.525 255.44L260.995 243.6ZM303.525 179.37L309.135 189.64L319.405 195.25L309.135 200.86L303.525 211.13L297.915 200.86L287.645 195.25L297.915 189.64L303.525 179.37ZM337.465 109.42L341.835 117.39L349.805 121.75L341.835 126.12L337.465 134.09L333.105 126.12L325.135 121.75L333.105 117.39L337.465 109.42ZM359.415 40.8999L362.805 47.0899L368.995 50.4799L362.805 53.8799L359.415 60.0699L356.015 53.8799L349.825 50.4799L356.015 47.0899L359.415 40.8999Z" fill="white"></path>
  </g>
  <defs>
    <clipPath id="clip0_462_103">
      <rect width="454.24" height="635.11" fill="white" transform="translate(0.765625)"></rect>
    </clipPath>
  </defs>
</svg>
