<svg width="149" height="24" viewBox="0 0 149 24" fill="none" xmlns="http://www.w3.org/2000/svg">
<path fill-rule="evenodd" clip-rule="evenodd" d="M149 0H0V24H149V23.9861L138 12.2069L149 0.0143423V0Z" fill="url(#paint0_linear_591_141)"/>
<path d="M37.9844 16V7.38086H39.3379C40.123 7.38086 40.6973 7.43164 41.0605 7.5332C41.5762 7.66992 41.9863 7.92383 42.291 8.29492C42.5957 8.66602 42.748 9.10352 42.748 9.60742C42.748 9.93555 42.6777 10.2344 42.5371 10.5039C42.4004 10.7695 42.1758 11.0195 41.8633 11.2539C42.3867 11.5 42.7695 11.8086 43.0117 12.1797C43.2539 12.5469 43.375 12.9824 43.375 13.4863C43.375 13.9707 43.25 14.4121 43 14.8105C42.75 15.209 42.4277 15.5078 42.0332 15.707C41.6387 15.9023 41.0938 16 40.3984 16H37.9844ZM39.625 8.94531V10.7617H39.9824C40.3809 10.7617 40.6758 10.6777 40.8672 10.5098C41.0625 10.3418 41.1602 10.1133 41.1602 9.82422C41.1602 9.55469 41.0684 9.3418 40.8848 9.18555C40.7012 9.02539 40.4219 8.94531 40.0469 8.94531H39.625ZM39.625 12.2266V14.4355H40.0352C40.7148 14.4355 41.1719 14.3496 41.4062 14.1777C41.6445 14.0059 41.7637 13.7559 41.7637 13.4277C41.7637 13.0566 41.625 12.7637 41.3477 12.5488C41.0703 12.334 40.6094 12.2266 39.9648 12.2266H39.625ZM46.8712 7.38086H51.5763V8.98633H48.5001V10.5449H51.5763V12.1211H48.5001V14.3887H51.5763V16H46.8712V7.38086ZM59.549 8.55273L58.3361 9.625C57.9103 9.03125 57.4767 8.73438 57.0353 8.73438C56.8205 8.73438 56.6447 8.79297 56.508 8.91016C56.3713 9.02344 56.3029 9.15234 56.3029 9.29688C56.3029 9.44141 56.3517 9.57812 56.4494 9.70703C56.5822 9.87891 56.9826 10.248 57.6505 10.8145C58.2755 11.3379 58.6545 11.668 58.7873 11.8047C59.1193 12.1406 59.3537 12.4629 59.4904 12.7715C59.631 13.0762 59.7013 13.4102 59.7013 13.7734C59.7013 14.4805 59.4572 15.0645 58.9689 15.5254C58.4806 15.9863 57.8439 16.2168 57.0588 16.2168C56.4455 16.2168 55.9103 16.0664 55.4533 15.7656C55.0002 15.4648 54.6115 14.9922 54.2873 14.3477L55.6642 13.5156C56.0783 14.2773 56.5548 14.6582 57.0939 14.6582C57.3752 14.6582 57.6115 14.5762 57.8029 14.4121C57.9943 14.248 58.09 14.0586 58.09 13.8438C58.09 13.6484 58.0177 13.4531 57.8732 13.2578C57.7287 13.0625 57.4103 12.7637 56.9181 12.3613C55.9806 11.5957 55.3752 11.0059 55.1017 10.5918C54.8283 10.1738 54.6916 9.75781 54.6916 9.34375C54.6916 8.74609 54.9181 8.23438 55.3713 7.80859C55.8283 7.37891 56.3908 7.16406 57.0588 7.16406C57.4884 7.16406 57.8966 7.26367 58.2834 7.46289C58.674 7.66211 59.0959 8.02539 59.549 8.55273ZM62.3479 7.38086H67.1116V8.99805H65.5413V16H63.8772V8.99805H62.3479V7.38086ZM79.9574 8.55273L78.7445 9.625C78.3187 9.03125 77.8852 8.73438 77.4437 8.73438C77.2289 8.73438 77.0531 8.79297 76.9164 8.91016C76.7797 9.02344 76.7113 9.15234 76.7113 9.29688C76.7113 9.44141 76.7602 9.57812 76.8578 9.70703C76.9906 9.87891 77.391 10.248 78.059 10.8145C78.684 11.3379 79.0629 11.668 79.1957 11.8047C79.5277 12.1406 79.7621 12.4629 79.8988 12.7715C80.0395 13.0762 80.1098 13.4102 80.1098 13.7734C80.1098 14.4805 79.8656 15.0645 79.3773 15.5254C78.8891 15.9863 78.2523 16.2168 77.4672 16.2168C76.8539 16.2168 76.3187 16.0664 75.8617 15.7656C75.4086 15.4648 75.0199 14.9922 74.6957 14.3477L76.0727 13.5156C76.4867 14.2773 76.9633 14.6582 77.5023 14.6582C77.7836 14.6582 78.0199 14.5762 78.2113 14.4121C78.4027 14.248 78.4984 14.0586 78.4984 13.8438C78.4984 13.6484 78.4262 13.4531 78.2816 13.2578C78.1371 13.0625 77.8187 12.7637 77.3266 12.3613C76.3891 11.5957 75.7836 11.0059 75.5102 10.5918C75.2367 10.1738 75.1 9.75781 75.1 9.34375C75.1 8.74609 75.3266 8.23438 75.7797 7.80859C76.2367 7.37891 76.7992 7.16406 77.4672 7.16406C77.8969 7.16406 78.3051 7.26367 78.6918 7.46289C79.0824 7.66211 79.5043 8.02539 79.9574 8.55273ZM83.6118 7.38086H88.3169V8.98633H85.2407V10.5449H88.3169V12.1211H85.2407V14.3887H88.3169V16H83.6118V7.38086ZM91.772 7.38086H93.4127V14.4355H95.8033V16H91.772V7.38086ZM98.9772 7.38086H100.618V14.4355H103.008V16H98.9772V7.38086ZM106.188 7.38086H110.893V8.98633H107.817V10.5449H110.893V12.1211H107.817V14.3887H110.893V16H106.188V7.38086ZM114.46 7.38086H116.2C117.153 7.38086 117.831 7.4668 118.233 7.63867C118.639 7.80664 118.966 8.08789 119.212 8.48242C119.458 8.87695 119.581 9.34375 119.581 9.88281C119.581 10.4492 119.444 10.9238 119.171 11.3066C118.901 11.6855 118.493 11.9727 117.946 12.168L119.985 16H118.192L116.253 12.3496H116.1V16H114.46V7.38086ZM116.1 10.75H116.616C117.139 10.75 117.499 10.6816 117.694 10.5449C117.893 10.4082 117.993 10.1816 117.993 9.86523C117.993 9.67773 117.944 9.51562 117.846 9.37891C117.749 9.23828 117.618 9.13867 117.454 9.08008C117.29 9.01758 116.989 8.98633 116.552 8.98633H116.1V10.75Z" fill="white"/>
<path d="M14.9983 17.9952H24.3317M19.373 6.17256C19.4018 6.1203 19.444 6.07672 19.4954 6.04637C19.5468 6.01601 19.6053 6 19.665 6C19.7247 6 19.7832 6.01601 19.8346 6.04637C19.8859 6.07672 19.9282 6.1203 19.957 6.17256L21.925 9.90856C21.9719 9.99507 22.0374 10.0701 22.1168 10.1283C22.1962 10.1865 22.2874 10.2264 22.3841 10.2451C22.4807 10.2639 22.5802 10.261 22.6756 10.2367C22.771 10.2124 22.8598 10.1673 22.9357 10.1046L25.787 7.6619C25.8417 7.61738 25.9092 7.59137 25.9796 7.58763C26.0501 7.58389 26.1199 7.60259 26.1791 7.64106C26.2382 7.67953 26.2836 7.73577 26.3088 7.80169C26.3339 7.86761 26.3375 7.93981 26.319 8.0079L24.4297 14.8386C24.3911 14.9783 24.308 15.1017 24.193 15.19C24.078 15.2783 23.9373 15.3267 23.7923 15.3279H15.5383C15.3932 15.3269 15.2524 15.2786 15.1373 15.1902C15.0221 15.1019 14.9389 14.9784 14.9003 14.8386L13.0117 8.00856C12.9932 7.94048 12.9967 7.86828 13.0219 7.80236C13.047 7.73644 13.0925 7.68019 13.1516 7.64173C13.2107 7.60326 13.2806 7.58455 13.351 7.5883C13.4215 7.59204 13.4889 7.61804 13.5437 7.66256L16.3943 10.1052C16.4702 10.1679 16.559 10.213 16.6544 10.2373C16.7497 10.2617 16.8493 10.2645 16.9459 10.2458C17.0425 10.2271 17.1338 10.1872 17.2132 10.129C17.2926 10.0708 17.3581 9.99574 17.405 9.90923L19.373 6.17256Z" stroke="white" stroke-linecap="round" stroke-linejoin="round"/>
<defs>
<linearGradient id="paint0_linear_591_141" x1="0" y1="12" x2="162" y2="12" gradientUnits="userSpaceOnUse">
<stop stop-color="#26B041"/>
<stop offset="1" stop-color="#7AFFC9"/>
</linearGradient>
</defs>
</svg>
