<svg width="169" height="24" viewBox="0 0 169 24" fill="none" xmlns="http://www.w3.org/2000/svg">
<path fill-rule="evenodd" clip-rule="evenodd" d="M169 0H0V24H169V23.9859L156.524 12.2069L169 0.0145239V0Z" fill="url(#paint0_linear_591_123)"/>
<path d="M34.6504 7.38086H36.2207L39.918 13.0527V7.38086H41.5586V16H39.9824L36.291 10.3457V16H34.6504V7.38086ZM45.4532 7.38086H50.1583V8.98633H47.0821V10.5449H50.1583V12.1211H47.0821V14.3887H50.1583V16H45.4532V7.38086ZM52.9572 7.38086H54.5744L55.8166 12.8828L57.3576 7.38086H58.7228L60.2814 12.8828L61.5119 7.38086H63.1291L61.1896 16H59.6134L58.0255 10.4277L56.467 16H54.9084L52.9572 7.38086ZM74.2464 7.38086H75.9105L79.2269 16H77.5218L76.848 14.2246H73.3323L72.6292 16H70.9241L74.2464 7.38086ZM75.0902 9.66602L73.9417 12.625H76.2327L75.0902 9.66602ZM82.5355 7.38086H84.2758C85.2289 7.38086 85.9066 7.4668 86.309 7.63867C86.7152 7.80664 87.0414 8.08789 87.2875 8.48242C87.5336 8.87695 87.6566 9.34375 87.6566 9.88281C87.6566 10.4492 87.5199 10.9238 87.2465 11.3066C86.977 11.6855 86.5687 11.9727 86.0219 12.168L88.0609 16H86.268L84.3285 12.3496H84.1762V16H82.5355V7.38086ZM84.1762 10.75H84.6918C85.2152 10.75 85.5746 10.6816 85.7699 10.5449C85.9691 10.4082 86.0687 10.1816 86.0687 9.86523C86.0687 9.67773 86.0199 9.51562 85.9223 9.37891C85.8246 9.23828 85.6937 9.13867 85.5297 9.08008C85.3656 9.01758 85.0648 8.98633 84.6273 8.98633H84.1762V10.75ZM91.4165 7.38086H93.1567C94.1098 7.38086 94.7876 7.4668 95.1899 7.63867C95.5962 7.80664 95.9223 8.08789 96.1684 8.48242C96.4145 8.87695 96.5376 9.34375 96.5376 9.88281C96.5376 10.4492 96.4009 10.9238 96.1274 11.3066C95.8579 11.6855 95.4497 11.9727 94.9028 12.168L96.9419 16H95.1489L93.2095 12.3496H93.0571V16H91.4165V7.38086ZM93.0571 10.75H93.5727C94.0962 10.75 94.4555 10.6816 94.6509 10.5449C94.8501 10.4082 94.9497 10.1816 94.9497 9.86523C94.9497 9.67773 94.9009 9.51562 94.8032 9.37891C94.7055 9.23828 94.5747 9.13867 94.4106 9.08008C94.2466 9.01758 93.9458 8.98633 93.5083 8.98633H93.0571V10.75ZM100.069 7.38086H101.698V16H100.069V7.38086ZM104.813 7.38086H106.501L108.669 13.5039L110.866 7.38086H112.553L109.448 16H107.866L104.813 7.38086ZM118.417 7.38086H120.081L123.397 16H121.692L121.018 14.2246H117.503L116.8 16H115.094L118.417 7.38086ZM119.26 9.66602L118.112 12.625H120.403L119.26 9.66602ZM126.595 7.38086H128.235V14.4355H130.626V16H126.595V7.38086ZM138.317 8.55273L137.104 9.625C136.679 9.03125 136.245 8.73438 135.804 8.73438C135.589 8.73438 135.413 8.79297 135.276 8.91016C135.14 9.02344 135.071 9.15234 135.071 9.29688C135.071 9.44141 135.12 9.57812 135.218 9.70703C135.35 9.87891 135.751 10.248 136.419 10.8145C137.044 11.3379 137.423 11.668 137.556 11.8047C137.888 12.1406 138.122 12.4629 138.259 12.7715C138.399 13.0762 138.47 13.4102 138.47 13.7734C138.47 14.4805 138.225 15.0645 137.737 15.5254C137.249 15.9863 136.612 16.2168 135.827 16.2168C135.214 16.2168 134.679 16.0664 134.222 15.7656C133.768 15.4648 133.38 14.9922 133.056 14.3477L134.433 13.5156C134.847 14.2773 135.323 14.6582 135.862 14.6582C136.143 14.6582 136.38 14.5762 136.571 14.4121C136.763 14.248 136.858 14.0586 136.858 13.8438C136.858 13.6484 136.786 13.4531 136.641 13.2578C136.497 13.0625 136.179 12.7637 135.686 12.3613C134.749 11.5957 134.143 11.0059 133.87 10.5918C133.597 10.1738 133.46 9.75781 133.46 9.34375C133.46 8.74609 133.686 8.23438 134.14 7.80859C134.597 7.37891 135.159 7.16406 135.827 7.16406C136.257 7.16406 136.665 7.26367 137.052 7.46289C137.442 7.66211 137.864 8.02539 138.317 8.55273Z" fill="white"/>
<path d="M12.0891 5.02097C12.1479 4.8239 12.2688 4.65109 12.4337 4.52828C12.5987 4.40546 12.7989 4.3392 13.0046 4.33936H17.2107C17.3649 4.33941 17.5168 4.37683 17.6534 4.4484C17.79 4.51997 17.9072 4.62357 17.995 4.75033C18.0829 4.87709 18.1387 5.02324 18.1577 5.17627C18.1767 5.32931 18.1584 5.48467 18.1042 5.62907L17.3405 7.6634C17.226 7.79578 17.1359 7.95106 17.0704 8.12926L16.7486 9.11254H16.467C16.3899 9.11254 16.3138 9.09383 16.2455 9.05802C16.1771 9.02221 16.1185 8.97036 16.0746 8.90691C16.0307 8.84347 16.0028 8.77032 15.9933 8.69374C15.9838 8.61716 15.9931 8.53943 16.0203 8.4672L17.2107 5.29399H13.0046L11.2977 11.0218H13.1248C13.1989 11.0218 13.272 11.0391 13.3383 11.0722C13.4046 11.1053 13.4622 11.1535 13.5067 11.2127C13.5512 11.272 13.5812 11.3408 13.5945 11.4137C13.6077 11.4866 13.6038 11.5616 13.5831 11.6328L12.1826 16.4336C12.1634 16.4881 12.1655 16.5477 12.1883 16.6007C12.2135 16.649 12.2532 16.6881 12.3019 16.7124C12.3564 16.741 12.4127 16.7477 12.4585 16.7401C12.515 16.7286 12.5651 16.6962 12.5988 16.6494L15.5343 12.9607L16.0183 13.1211C16.152 13.165 16.2761 13.2347 16.4307 13.3664L13.3454 17.2432C12.5301 18.2675 10.8996 17.4226 11.2662 16.1663L12.4891 11.9764H10.9769C10.8655 11.9763 10.7556 11.9502 10.6561 11.9001C10.5565 11.8501 10.47 11.7775 10.4035 11.6881C10.3369 11.5988 10.2921 11.4951 10.2727 11.3854C10.2533 11.2757 10.2597 11.163 10.2915 11.0562L12.0891 5.02097ZM18.7362 8.42711L19.0684 9.44952C19.1714 9.7605 19.3458 10.0431 19.5775 10.2746C19.8092 10.5062 20.0919 10.6803 20.403 10.7832L21.4264 11.1154L21.4464 11.1211C21.5253 11.1489 21.5936 11.2004 21.6419 11.2686C21.6902 11.3369 21.7161 11.4184 21.7161 11.502C21.7161 11.5856 21.6902 11.6671 21.6419 11.7354C21.5936 11.8036 21.5253 11.8551 21.4464 11.8829L20.424 12.2151C20.1128 12.3178 19.8299 12.4919 19.598 12.7234C19.3661 12.955 19.1916 13.2376 19.0885 13.5487L18.7562 14.5702C18.7285 14.649 18.6769 14.7173 18.6087 14.7657C18.5405 14.814 18.4589 14.8399 18.3753 14.8399C18.2917 14.8399 18.2102 14.814 18.142 14.7657C18.0738 14.7173 18.0222 14.649 17.9944 14.5702L17.6622 13.5487C17.5428 13.1871 17.3274 12.8647 17.0389 12.6161C16.8302 12.4349 16.5879 12.2967 16.3257 12.2094L15.3024 11.8772C15.2235 11.8494 15.1552 11.7979 15.1069 11.7296C15.0586 11.6614 15.0326 11.5799 15.0326 11.4963C15.0326 11.4127 15.0586 11.3311 15.1069 11.2629C15.1552 11.1947 15.2235 11.1431 15.3024 11.1154L16.3257 10.7832C16.6331 10.6777 16.9118 10.5024 17.1399 10.271C17.368 10.0395 17.5393 9.75836 17.6403 9.44952L17.9725 8.42806C18 8.34887 18.0516 8.28023 18.1199 8.23165C18.1883 8.18307 18.27 8.15697 18.3539 8.15697C18.4377 8.15697 18.5195 8.18307 18.5878 8.23165C18.6562 8.28023 18.7077 8.34887 18.7352 8.42806M23.4177 15.9993L22.6874 15.7625C22.4653 15.6887 22.2634 15.5642 22.0977 15.3988C21.932 15.2335 21.8071 15.0318 21.7328 14.8098L21.496 14.0795C21.4763 14.0231 21.4395 13.9743 21.3907 13.9397C21.342 13.9051 21.2837 13.8866 21.224 13.8866C21.1642 13.8866 21.1059 13.9051 21.0572 13.9397C21.0085 13.9743 20.9717 14.0231 20.9519 14.0795L20.7132 14.8098C20.6406 15.0301 20.5182 15.2306 20.3554 15.3959C20.1926 15.5611 19.994 15.6866 19.7748 15.7625L19.0445 15.9993C19.0025 16.0143 18.9645 16.0387 18.9335 16.0708C18.9025 16.1029 18.8794 16.1417 18.8659 16.1843C18.8524 16.2268 18.8489 16.2719 18.8557 16.3159C18.8625 16.36 18.8795 16.402 18.9052 16.4384C18.9395 16.4861 18.9882 16.5243 19.0445 16.5434L19.7748 16.7811C19.9974 16.8553 20.1996 16.9805 20.3653 17.1465C20.531 17.3126 20.6557 17.515 20.7295 17.7377L20.9662 18.467C20.986 18.5234 21.0228 18.5723 21.0715 18.6068C21.1203 18.6414 21.1785 18.66 21.2383 18.66C21.298 18.66 21.3563 18.6414 21.4051 18.6068C21.4538 18.5723 21.4906 18.5234 21.5104 18.467L21.7481 17.7377C21.8221 17.5156 21.9469 17.3138 22.1124 17.1483C22.2779 16.9828 22.4797 16.8581 22.7018 16.784L23.4321 16.5472C23.4884 16.5275 23.5373 16.4907 23.5719 16.4419C23.6064 16.3932 23.625 16.3349 23.625 16.2752C23.625 16.2154 23.6064 16.1571 23.5719 16.1084C23.5373 16.0597 23.4884 16.0229 23.4321 16.0031L23.4177 15.9993Z" fill="white"/>
<defs>
<linearGradient id="paint0_linear_591_123" x1="0" y1="12" x2="169" y2="12" gradientUnits="userSpaceOnUse">
<stop stop-color="#DBB8E5"/>
<stop offset="1" stop-color="#FFCFCB"/>
</linearGradient>
</defs>
</svg>
