<svg width="149" height="24" viewBox="0 0 149 24" fill="none" xmlns="http://www.w3.org/2000/svg">
<path fill-rule="evenodd" clip-rule="evenodd" d="M149 0H0V24H149V23.9861L138 12.2069L149 0.0143423V0Z" fill="url(#paint0_linear_591_125)"/>
<path d="M46.4434 7.38086H51.207V8.99805H49.6367V16H47.9727V8.99805H46.4434V7.38086ZM54.3634 7.38086H56.1036C57.0567 7.38086 57.7345 7.4668 58.1368 7.63867C58.543 7.80664 58.8692 8.08789 59.1153 8.48242C59.3614 8.87695 59.4845 9.34375 59.4845 9.88281C59.4845 10.4492 59.3477 10.9238 59.0743 11.3066C58.8048 11.6855 58.3966 11.9727 57.8497 12.168L59.8888 16H58.0958L56.1563 12.3496H56.004V16H54.3634V7.38086ZM56.004 10.75H56.5196C57.043 10.75 57.4024 10.6816 57.5977 10.5449C57.797 10.4082 57.8966 10.1816 57.8966 9.86523C57.8966 9.67773 57.8477 9.51562 57.7501 9.37891C57.6524 9.23828 57.5216 9.13867 57.3575 9.08008C57.1934 9.01758 56.8927 8.98633 56.4552 8.98633H56.004V10.75ZM63.1388 7.38086H67.8439V8.98633H64.7677V10.5449H67.8439V12.1211H64.7677V14.3887H67.8439V16H63.1388V7.38086ZM71.3049 7.38086H72.8752L76.5725 13.0527V7.38086H78.2131V16H76.637L72.9455 10.3457V16H71.3049V7.38086ZM82.1077 7.38086H84.053C85.307 7.38086 86.2386 7.53711 86.848 7.84961C87.4573 8.1582 87.9593 8.66211 88.3538 9.36133C88.7484 10.0605 88.9456 10.877 88.9456 11.8105C88.9456 12.4746 88.8343 13.0859 88.6116 13.6445C88.3929 14.1992 88.0882 14.6602 87.6976 15.0273C87.3109 15.3945 86.8909 15.6484 86.4378 15.7891C85.9847 15.9297 85.1995 16 84.0823 16H82.1077V7.38086ZM83.7425 8.96289V14.3945H84.5042C85.2542 14.3945 85.7972 14.3086 86.1331 14.1367C86.473 13.9648 86.7503 13.6758 86.9652 13.2695C87.18 12.8633 87.2874 12.3633 87.2874 11.7695C87.2874 10.8555 87.0316 10.1465 86.5198 9.64258C86.0589 9.18945 85.3187 8.96289 84.2991 8.96289H83.7425ZM92.307 7.38086H93.9359V16H92.307V7.38086ZM97.7134 7.38086H99.2837L102.981 13.0527V7.38086H104.622V16H103.045L99.354 10.3457V16H97.7134V7.38086ZM116.467 8.78711L115.313 9.92969C114.583 9.15625 113.731 8.76953 112.758 8.76953C111.911 8.76953 111.2 9.05078 110.626 9.61328C110.055 10.1758 109.77 10.8594 109.77 11.6641C109.77 12.4961 110.067 13.2012 110.661 13.7793C111.254 14.3574 111.987 14.6465 112.858 14.6465C113.424 14.6465 113.901 14.5273 114.288 14.2891C114.678 14.0508 114.993 13.6777 115.231 13.1699H112.735V11.6289H117.071L117.083 11.9922C117.083 12.7461 116.887 13.4609 116.497 14.1367C116.106 14.8125 115.6 15.3281 114.979 15.6836C114.358 16.0391 113.629 16.2168 112.794 16.2168C111.899 16.2168 111.1 16.0234 110.397 15.6367C109.698 15.2461 109.143 14.6914 108.733 13.9727C108.327 13.2539 108.124 12.4785 108.124 11.6465C108.124 10.5059 108.501 9.51367 109.254 8.66992C110.149 7.66602 111.313 7.16406 112.747 7.16406C113.497 7.16406 114.198 7.30273 114.85 7.58008C115.401 7.81445 115.94 8.2168 116.467 8.78711Z" fill="white"/>
<path d="M27.43 7.03003L29.1361 8.73608L25.5004 12.3717L22.5204 9.39168L17 14.9196L18.0505 15.97L22.5204 11.5L25.5004 14.48L30.1939 9.79398L31.9 11.5V7.03003H27.43Z" fill="white"/>
<defs>
<linearGradient id="paint0_linear_591_125" x1="3.31508e-09" y1="12" x2="159.536" y2="14.762" gradientUnits="userSpaceOnUse">
<stop stop-color="#986866"/>
<stop offset="1" stop-color="#FFCFCB"/>
</linearGradient>
</defs>
</svg>
